<?xml version="1.0" encoding="UTF-8" standalone="no"?>
<!DOCTYPE svg PUBLIC "-//W3C//DTD SVG 1.1//EN" "http://www.w3.org/Graphics/SVG/1.1/DTD/svg11.dtd">
<svg width="100%" height="100%" viewBox="0 0 3000 3000" version="1.1" xmlns="http://www.w3.org/2000/svg" xmlns:xlink="http://www.w3.org/1999/xlink" xml:space="preserve" xmlns:serif="http://www.serif.com/" style="fill-rule:evenodd;clip-rule:evenodd;stroke-linecap:round;stroke-linejoin:round;stroke-miterlimit:1.5;">
    <rect id="Background" x="0" y="0" width="3000" height="3000" style="fill:rgb(206,206,206);"/>
    <g id="Layer2">
        <g transform="matrix(1,0,0,1,-1588.24,-404.862)">
            <path d="M1445.21,1091.37C1445.21,1035.83 1509.3,990.744 1588.24,990.744C1667.18,990.744 1731.27,1035.83 1731.27,1091.37C1770.74,1043.27 1858.28,1026.77 1926.64,1054.54C1995.01,1082.3 2018.47,1143.89 1979,1191.99C2047.36,1164.22 2134.91,1180.72 2174.38,1228.82C2213.84,1276.91 2190.39,1338.5 2122.02,1366.27C2200.96,1366.27 2265.05,1411.36 2265.05,1466.89C2265.05,1522.43 2200.96,1567.52 2122.02,1567.52C2190.39,1595.28 2213.84,1656.87 2174.38,1704.97C2134.91,1753.06 2047.36,1769.57 1979,1741.8C2018.47,1789.89 1995.01,1851.48 1926.64,1879.25C1858.28,1907.02 1770.74,1890.51 1731.27,1842.42C1731.27,1897.95 1667.18,1943.04 1588.24,1943.04C1509.3,1943.04 1445.21,1897.95 1445.21,1842.42C1405.74,1890.51 1318.2,1907.02 1249.83,1879.25C1181.47,1851.48 1158.01,1789.89 1197.48,1741.8C1129.12,1769.57 1041.57,1753.06 1002.1,1704.97C962.634,1656.87 986.092,1595.28 1054.45,1567.52C975.516,1567.52 911.428,1522.43 911.428,1466.89C911.428,1411.36 975.516,1366.27 1054.45,1366.27C986.092,1338.5 962.634,1276.91 1002.1,1228.82C1041.57,1180.72 1129.12,1164.22 1197.48,1191.99C1158.01,1143.89 1181.47,1082.3 1249.83,1054.54C1318.2,1026.77 1405.74,1043.27 1445.21,1091.37Z" style="fill:white;stroke:white;stroke-width:20.83px;"/>
        </g>
        <g transform="matrix(1,0,0,1,1411.76,-404.862)">
            <path d="M1445.21,1091.37C1445.21,1035.83 1509.3,990.744 1588.24,990.744C1667.18,990.744 1731.27,1035.83 1731.27,1091.37C1770.74,1043.27 1858.28,1026.77 1926.64,1054.54C1995.01,1082.3 2018.47,1143.89 1979,1191.99C2047.36,1164.22 2134.91,1180.72 2174.38,1228.82C2213.84,1276.91 2190.39,1338.5 2122.02,1366.27C2200.96,1366.27 2265.05,1411.36 2265.05,1466.89C2265.05,1522.43 2200.96,1567.52 2122.02,1567.52C2190.39,1595.28 2213.84,1656.87 2174.38,1704.97C2134.91,1753.06 2047.36,1769.57 1979,1741.8C2018.47,1789.89 1995.01,1851.48 1926.64,1879.25C1858.28,1907.02 1770.74,1890.51 1731.27,1842.42C1731.27,1897.95 1667.18,1943.04 1588.24,1943.04C1509.3,1943.04 1445.21,1897.95 1445.21,1842.42C1405.74,1890.51 1318.2,1907.02 1249.83,1879.25C1181.47,1851.48 1158.01,1789.89 1197.48,1741.8C1129.12,1769.57 1041.57,1753.06 1002.1,1704.97C962.634,1656.87 986.092,1595.28 1054.45,1567.52C975.516,1567.52 911.428,1522.43 911.428,1466.89C911.428,1411.36 975.516,1366.27 1054.45,1366.27C986.092,1338.5 962.634,1276.91 1002.1,1228.82C1041.57,1180.72 1129.12,1164.22 1197.48,1191.99C1158.01,1143.89 1181.47,1082.3 1249.83,1054.54C1318.2,1026.77 1405.74,1043.27 1445.21,1091.37Z" style="fill:white;stroke:white;stroke-width:20.83px;"/>
        </g>
        <g transform="matrix(1,0,0,1,-174.486,-1803.73)">
            <path d="M1585.5,1770.11C1586.5,1781.18 1587.02,1792.4 1587.02,1803.73C1587.02,2006.76 1422.18,2171.59 1219.16,2171.59C1016.13,2171.59 851.297,2006.76 851.297,1803.73C851.297,1600.71 1016.13,1435.88 1219.16,1435.88C1230.49,1435.88 1241.7,1436.39 1252.78,1437.39C1099.48,1452.73 979.617,1582.26 979.617,1739.57C979.617,1907.19 1115.7,2043.27 1283.32,2043.27C1440.63,2043.27 1570.16,1923.41 1585.5,1770.11Z" style="fill:white;"/>
        </g>
        <g transform="matrix(1,0,0,1,-174.486,1196.27)">
            <path d="M1585.5,1770.11C1586.5,1781.18 1587.02,1792.4 1587.02,1803.73C1587.02,2006.76 1422.18,2171.59 1219.16,2171.59C1016.13,2171.59 851.297,2006.76 851.297,1803.73C851.297,1600.71 1016.13,1435.88 1219.16,1435.88C1230.49,1435.88 1241.7,1436.39 1252.78,1437.39C1099.48,1452.73 979.617,1582.26 979.617,1739.57C979.617,1907.19 1115.7,2043.27 1283.32,2043.27C1440.63,2043.27 1570.16,1923.41 1585.5,1770.11Z" style="fill:white;"/>
        </g>
        <g transform="matrix(0.929461,-0.36892,0.36892,0.929461,-639.193,889.439)">
            <path d="M1632.73,1097.79L1731.93,1403.12L2052.96,1403.12L1793.24,1591.81L1892.45,1897.14L1632.73,1708.44L1373,1897.14L1472.21,1591.81L1212.49,1403.12L1533.52,1403.12L1632.73,1097.79Z" style="fill:white;"/>
        </g>
    </g>
</svg>
